<svg xmlns="http://www.w3.org/2000/svg" aria-hidden="true" data-bbox="1.36 1.373 216.46 31.28" data-type="color" preserveAspectRatio="xMidYMid meet" role="presentation" viewBox="1.36 1.373 216.46 31.28"><g><mask id="logo_mask" width="34" height="34" x="0" y="0" fill="none" maskUnits="userSpaceOnUse" style="mask-type:luminance"><path fill="#fff" d="M0 0h34v34H0z"/></mask><g mask="url(#logo_mask)"><path fill="#FF834F" fill-rule="evenodd" d="M17 1.373c-8.63 0-15.64 7.01-15.64 15.64S8.37 32.653 17 32.653s15.64-7.01 15.64-15.64S25.63 1.373 17 1.373m2.04 12.906c3.173 0 5.555 1.578 7.459 3.233.951.828 1.77 1.668 2.51 2.33.088.08.172.15.259.227-.65.222-1.253.531-1.834.86l-.112-.075c-1.31-.874-3.02-1.815-5.562-1.815-2.05 0-3.795.789-5.407 1.776a78 78 0 0 1-1.748-1.297c-.916-.695-1.862-1.407-2.858-2.029 2.148-1.795 4.279-3.21 7.293-3.21M6.12 17c1.126 0 2.192.294 3.226.756-1.81 1.574-3.613 3.088-5.843 3.914a14.2 14.2 0 0 1-.74-3.624C3.4 17.694 4.822 17 6.12 17m4.527 1.432c1.06.622 2.096 1.38 3.137 2.17q.671.509 1.348 1.011c-.3.204-.604.405-.899.608-.585.405-1.16.8-1.737 1.164-1.606-.917-3.264-1.625-5.016-1.625-.422 0-.806.02-1.17.048 1.615-.983 2.997-2.205 4.337-3.376M21.76 20.4c1.951 0 3.22.595 4.344 1.3-1.322.764-2.633 1.42-4.344 1.42-1.406 0-2.768-.597-4.15-1.46 1.32-.742 2.664-1.26 4.15-1.26m-5.445 2.059c.857.581 1.74 1.085 2.665 1.449-.916.495-1.777 1.172-2.603 1.889q-.689-.421-1.39-.869-.597-.383-1.203-.762c.412-.274.823-.55 1.222-.826q.659-.456 1.309-.881m11.059.08c.7.48 1.418.924 2.251 1.133-.179.337-.376.663-.58.984a7 7 0 0 1-.517.498c-.362-.018-1.403-.45-2.59-.96a24 24 0 0 0-.968-.392c.781-.327 1.49-.728 2.15-1.116zM7.48 23.12c1.144 0 2.355.436 3.606 1.074-1.146.58-2.324.966-3.606.966-1.738 0-2.92-1.16-2.92-1.16h-.001q-.133-.238-.256-.482c.579-.177 1.578-.4 3.178-.4m14.28 1.36c1.19 0 2.473.465 3.642.966.623.267 1.19.55 1.738.76-1.284.831-3.134 1.674-5.38 1.674-1.307 0-2.698-.556-4.139-1.348 1.434-1.164 2.877-2.052 4.139-2.052m-9.257.498c.577.346 1.16.717 1.749 1.095q.524.335 1.053.668c-.924.841-1.795 1.665-2.566 2.258-.759.583-1.413.893-1.814.913a14.3 14.3 0 0 1-4.703-3.556c.389.095.803.164 1.258.164 1.887 0 3.518-.665 5.023-1.541m4.016 2.508c1.676.979 3.407 1.754 5.24 1.754 1.294 0 2.469-.241 3.503-.601A14.2 14.2 0 0 1 17 31.279c-1.478 0-2.903-.224-4.243-.64.27-.17.54-.354.811-.563.873-.672 1.771-1.53 2.699-2.373.083-.076.169-.143.252-.218" clip-rule="evenodd" data-color="1"/></g><path fill="#fff" d="M89.12 10.48q-.86 0-1.4-.5a1.62 1.62 0 0 1-.54-1.24q0-.74.54-1.24t1.4-.5 1.4.48.54 1.2q0 .78-.54 1.29t-1.4.51m114.22 0q-.86 0-1.4-.5a1.62 1.62 0 0 1-.54-1.24q0-.74.54-1.24t1.4-.5 1.4.48.54 1.2q0 .78-.54 1.29t-1.4.51M55.06 19.74h-6.5l-1.24 3H44l6.24-14h3.2l6.26 14h-3.4zm77.68-11h-6.36v14h6.36q2.28 0 4.03-.87t2.72-2.45.97-3.68-.97-3.68-2.72-2.45-4.03-.87m3.19 10.17q-1.25 1.17-3.35 1.17h-2.96V11.4h2.96q2.1 0 3.35 1.17t1.25 3.17-1.25 3.17M71.48 17.4q0 .06-.06.84h-8.14a2.54 2.54 0 0 0 1.04 1.58q.82.58 2.04.58.84 0 1.49-.25a3.6 3.6 0 0 0 1.21-.79l1.66 1.8q-1.52 1.74-4.44 1.74-1.82 0-3.22-.71t-2.16-1.97-.76-2.86q0-1.58.75-2.85a5.25 5.25 0 0 1 2.06-1.98q1.31-.71 2.93-.71 1.58 0 2.86.68a4.96 4.96 0 0 1 2.01 1.95q.73 1.27.73 2.95m13.18 3.54v-8.96H81.7v1.38q-1.22-1.54-3.56-1.54-1.48 0-2.71.65a4.95 4.95 0 0 0-1.95 1.83q-.72 1.18-.72 2.72t.72 2.72a4.95 4.95 0 0 0 1.95 1.83q1.23.65 2.71.65 2.18 0 3.4-1.34v.46q0 1.48-.77 2.21t-2.39.73q-1.04 0-2.08-.33t-1.72-.89l-1.24 2.24q.92.72 2.32 1.1t2.96.38q2.96 0 4.5-1.44t1.54-4.4m10.99 1.25q1.35.71 3.05.71t3.04-.71a5.3 5.3 0 0 0 2.1-1.97q.76-1.26.76-2.86t-.76-2.86a5.3 5.3 0 0 0-2.1-1.97q-1.34-.71-3.04-.71t-3.05.71a5.3 5.3 0 0 0-2.11 1.97q-.76 1.26-.76 2.86t.76 2.86a5.3 5.3 0 0 0 2.11 1.97m17.57-10.37q2 0 3.23 1.2t1.23 3.56v6.16h-3.12v-5.68q0-1.28-.56-1.91t-1.62-.63q-1.18 0-1.88.73t-.7 2.17v5.32h-3.12V11.98h2.98v1.26a4.14 4.14 0 0 1 1.54-1.05 5.4 5.4 0 0 1 2.02-.37m51.19 1.2q-1.23-1.2-3.23-1.2-1.1 0-2.02.37a4.14 4.14 0 0 0-1.54 1.05v-1.26h-2.98v10.76h3.12v-5.32q0-1.44.7-2.17t1.88-.73q1.06 0 1.62.63t.56 1.91v5.68h3.12v-6.16q0-2.36-1.23-3.56m8.39-1.2q2.5 0 3.84 1.19t1.34 3.59v6.14h-2.92V21.4q-.88 1.5-3.28 1.5-1.24 0-2.15-.42t-1.39-1.16a3 3 0 0 1-.48-1.68q0-1.5 1.13-2.36t3.49-.86h2.48q0-1.02-.62-1.57t-1.86-.55a5.4 5.4 0 0 0-1.69.27 4.5 4.5 0 0 0-1.41.73l-1.12-2.18q.88-.62 2.11-.96a9.5 9.5 0 0 1 2.53-.34m24.99 1.19q-1.19-1.19-3.21-1.19-1.2 0-2.21.46t-1.67 1.3a3.65 3.65 0 0 0-1.48-1.31q-.92-.45-2.06-.45-1.04 0-1.91.36t-1.47 1.04v-1.24h-2.98v10.76h3.12v-5.4q0-1.4.64-2.11t1.72-.71q2.04 0 2.04 2.54v5.68h3.12v-5.4q0-1.4.64-2.11t1.74-.71q.98 0 1.51.63t.53 1.91v5.68h3.12v-6.16q0-2.38-1.19-3.57m12.12 9.18q1.37.71 3.09.71 1.7 0 2.97-.72t1.85-2l-2.42-1.32q-.82 1.48-2.42 1.48-1.22 0-2.02-.8t-.8-2.18.8-2.18 2.02-.8q1.58 0 2.42 1.48l2.42-1.3a4.2 4.2 0 0 0-1.85-2.03q-1.27-.71-2.97-.71-1.72 0-3.09.71t-2.14 1.97-.77 2.86.77 2.86 2.14 1.97M54.04 17.28l-2.22-5.36-2.22 5.36zm99.32-5.3L148.5 23.4q-.74 1.86-1.83 2.62t-2.63.76q-.84 0-1.66-.26t-1.34-.72l1.14-2.22q.36.32.83.5t.93.18q.64 0 1.04-.31t.72-1.03l.04-.1-4.66-10.84h3.22l3.02 7.3 3.04-7.3zm-65.8 0h3.12v10.76h-3.12zm-21.66 2.2q-1.06 0-1.78.6t-.88 1.64h5.3q-.16-1.02-.88-1.63t-1.76-.61m14.89 4.75q-.79.73-2.03.73t-2.04-.73-.8-1.91.8-1.91 2.04-.73 2.03.73.79 1.91-.79 1.91m120.99-6.95h3.12v10.76h-3.12zm-101.11 7.55q-.77.81-1.97.81t-1.98-.81-.78-2.17.78-2.17 1.98-.81 1.97.81.77 2.17-.77 2.17m71.89 1.27q.8 0 1.42-.37t.88-1.09v-1.1h-2.14q-1.92 0-1.92 1.26 0 .6.47.95t1.29.35" data-color="2"/></g></svg>